<svg width="93" height="93" viewBox="0 0 93 93" fill="none" xmlns="http://www.w3.org/2000/svg">
<path d="M51.4805 22.1797C47.1185 20.6823 42.8542 20.9427 38.6875 22.9609C34.5208 24.9141 31.7214 27.974 30.2891 32.1406C30.0286 33.3776 30.1263 34.5495 30.582 35.6562C31.0378 36.763 31.8841 37.4141 33.1211 37.6094C34.1628 38 35.237 37.9349 36.3438 37.4141C37.4505 36.8932 38.1992 36.112 38.5898 35.0703C39.4362 32.987 40.8685 31.4245 42.8867 30.3828C44.9701 29.3411 47.151 29.2435 49.4297 30.0898C51.0573 30.7409 52.3594 31.75 53.3359 33.1172C54.3125 34.4844 54.8008 36.112 54.8008 38C54.8008 40.0833 53.4987 41.9062 50.8945 43.4688C48.3555 45.0312 46.4674 46.138 45.2305 46.7891C44.1888 47.1797 43.4076 47.8633 42.8867 48.8398C42.3659 49.8164 42.3333 50.9232 42.7891 52.1602C42.9844 53.0065 43.4401 53.7227 44.1562 54.3086C44.8724 54.8294 45.6536 55.0898 46.5 55.0898C46.6953 55.0898 46.8906 55.0898 47.0859 55.0898C47.3464 55.0247 47.5742 54.8945 47.7695 54.6992C48.1602 54.569 49.2018 54.1458 50.8945 53.4297C52.5221 52.7786 54.2474 51.8021 56.0703 50.5C57.8932 49.1328 59.5208 47.4401 60.9531 45.4219C62.4505 43.4688 63.1992 41.125 63.1992 38.3906C62.9388 34.6797 61.7344 31.3594 59.5859 28.4297C57.5026 25.5 54.8008 23.4167 51.4805 22.1797ZM46.5 0.5C40.1198 0.5 34.1628 1.70443 28.6289 4.11328C23.0299 6.45703 18.1471 9.71224 13.9805 13.8789C9.87891 18.0456 6.6237 22.8958 4.21484 28.4297C1.87109 34.0286 0.699219 39.9857 0.699219 46.3008C0.699219 52.681 1.87109 58.638 4.21484 64.1719C6.6237 69.7708 9.87891 74.6536 13.9805 78.8203C18.1471 82.9219 23.0299 86.1771 28.6289 88.5859C34.1628 90.9948 40.1198 92.1992 46.5 92.1992C52.8802 92.1992 58.8372 90.9948 64.3711 88.5859C69.9701 86.1771 74.8203 82.9219 78.9219 78.8203C83.0885 74.6536 86.3763 69.7708 88.7852 64.1719C91.1289 58.638 92.3008 52.681 92.3008 46.3008C92.3008 39.9857 91.1289 34.0286 88.7852 28.4297C86.3763 22.8958 83.0885 18.0456 78.9219 13.8789C74.8203 9.71224 69.9701 6.45703 64.3711 4.11328C58.8372 1.70443 52.8802 0.5 46.5 0.5ZM46.5 83.8008C41.2917 83.8008 36.4089 82.8242 31.8516 80.8711C27.2943 78.918 23.3229 76.2487 19.9375 72.8633C16.5521 69.4779 13.8828 65.5065 11.9297 60.9492C9.97656 56.3919 9 51.5091 9 46.3008C9 41.0924 9.97656 36.2096 11.9297 31.6523C13.8828 27.0951 16.5521 23.1237 19.9375 19.7383C23.3229 16.3529 27.2943 13.6836 31.8516 11.7305C36.4089 9.77734 41.2917 8.80078 46.5 8.80078C51.7083 8.80078 56.5911 9.77734 61.1484 11.7305C65.7057 13.6836 69.6771 16.3529 73.0625 19.7383C76.4479 23.1237 79.1172 27.0951 81.0703 31.6523C83.0234 36.2096 84 41.0924 84 46.3008C84 51.5091 83.0234 56.3919 81.0703 60.9492C79.1172 65.5065 76.4479 69.4779 73.0625 72.8633C69.6771 76.2487 65.7057 78.918 61.1484 80.8711C56.5911 82.8242 51.7083 83.8008 46.5 83.8008ZM43.5703 64.2695C43.1797 64.6602 42.8542 65.0833 42.5938 65.5391C42.3984 65.9948 42.3008 66.5482 42.3008 67.1992C42.3008 67.7852 42.3984 68.306 42.5938 68.7617C42.8542 69.2174 43.1797 69.6732 43.5703 70.1289C44.026 70.5195 44.4492 70.8125 44.8398 71.0078C45.2956 71.2031 45.849 71.3008 46.5 71.3008C47.151 71.3008 47.6719 71.2031 48.0625 71.0078C48.5182 70.8125 48.974 70.5195 49.4297 70.1289C49.8203 69.6732 50.1133 69.1849 50.3086 68.6641C50.569 68.0781 50.6992 67.5898 50.6992 67.1992C50.6992 66.7435 50.569 66.2552 50.3086 65.7344C50.1133 65.1484 49.8203 64.6602 49.4297 64.2695C48.5833 63.4232 47.6068 63 46.5 63C45.3932 63 44.4167 63.4232 43.5703 64.2695Z" fill="#858585"/>
</svg>
