<svg version="1.1" id="Layer_1" xmlns="http://www.w3.org/2000/svg" xmlns:xlink="http://www.w3.org/1999/xlink" x="0px" y="0px"
	 width="100%" viewBox="0 0 512 512" enable-background="new 0 0 512 512" xml:space="preserve">
<path fill="#FFFFFF" opacity="1.000000" stroke="none" 
	d="
M292.000000,513.000000 
	C268.979095,513.000000 245.958206,513.000000 222.771011,512.633911 
	C219.534454,511.498016 216.503052,510.471375 213.387665,509.999725 
	C192.513550,506.839478 172.625519,500.422638 153.338989,492.006287 
	C129.078384,481.419220 106.877449,467.391968 87.367722,449.621674 
	C66.313652,430.444702 47.872040,409.026093 33.852909,383.850769 
	C18.140358,355.634369 7.140892,326.029877 2.974425,293.949127 
	C2.880525,293.226135 1.682820,292.646515 1.000001,292.000000 
	C1.000000,268.979095 1.000000,245.958206 1.366001,222.771027 
	C2.498362,218.369537 3.047791,214.081268 4.068585,209.908310 
	C8.512706,191.740997 13.224165,173.721481 20.723438,156.420624 
	C31.852371,130.746109 46.284531,107.242958 65.090942,86.660072 
	C81.664871,68.520561 99.915543,52.245823 121.083313,39.261429 
	C151.712570,20.473320 184.339432,7.670969 220.051056,2.974716 
	C220.774734,2.879548 221.353577,1.682813 222.000000,0.999997 
	C245.020889,1.000000 268.041779,1.000000 291.228973,1.366016 
	C292.226929,2.171248 293.011902,2.823293 293.897308,3.017585 
	C306.113647,5.698302 318.440521,7.938157 330.548431,11.035972 
	C349.725861,15.942533 367.449829,24.455902 384.595642,34.210789 
	C401.558563,43.861633 417.273499,55.200497 431.288239,68.827972 
	C444.244965,81.426697 456.515411,94.562485 467.041199,109.379387 
	C478.833679,125.979378 488.363373,143.744705 495.870514,162.540207 
	C503.318939,181.188721 508.976318,200.427368 511.050018,220.550705 
	C511.106079,221.095016 512.323914,221.519608 513.000000,222.000000 
	C513.000000,245.020889 513.000000,268.041779 512.633911,291.228943 
	C511.837036,292.060394 511.171295,292.673340 511.010101,293.398468 
	C508.052032,306.704285 505.636383,320.152100 502.126709,333.308655 
	C497.318115,351.334381 489.063843,367.981049 479.986511,384.231018 
	C471.283295,399.811279 460.975189,414.285461 448.933990,427.365387 
	C432.052307,445.703308 413.847717,462.728668 392.082367,475.229279 
	C379.041321,482.719238 365.748108,490.038788 351.871948,495.740234 
	C333.192719,503.415192 313.766846,509.152985 293.447601,511.050781 
	C292.909058,511.101074 292.480072,512.323975 292.000000,513.000000 
M100.753448,354.214691 
	C96.727318,365.804871 95.919235,376.635437 104.986160,386.891571 
	C120.114822,404.004517 137.191437,418.509644 156.977676,429.974121 
	C191.703217,450.094635 229.203552,459.080200 269.030029,456.509796 
	C323.286469,453.008087 368.815582,430.480896 405.920135,390.699463 
	C414.839478,381.136597 418.456421,370.888641 414.522339,357.922363 
	C407.560852,334.977722 396.987823,313.994049 381.230774,295.941620 
	C374.166718,287.848480 366.064819,280.579987 357.914032,273.539093 
	C349.477448,266.251282 337.913269,266.425385 327.806274,273.533691 
	C301.351471,292.139496 271.976379,298.646973 240.169769,294.724609 
	C220.322342,292.277039 202.288300,284.992188 185.923813,273.383209 
	C175.574524,266.041412 164.858063,266.355682 155.099915,274.399109 
	C148.463257,279.869507 142.169617,285.842651 136.276001,292.111328 
	C119.702156,309.739807 108.228935,330.397736 100.753448,354.214691 
M287.215881,84.234314 
	C277.047119,80.757095 266.636902,79.201202 255.844772,79.236137 
	C208.831909,79.388290 168.379974,117.204887 165.317947,164.125671 
	C161.566589,221.608902 209.454620,267.901825 266.732910,262.162628 
	C310.821991,257.744934 346.492493,220.496567 348.688507,176.581757 
	C350.764160,135.074142 327.080505,99.149521 287.215881,84.234314 
z"/>
<path fill="none" opacity="1.000000" stroke="none" 
	d="
M1.000001,292.468658 
	C1.682820,292.646515 2.880525,293.226135 2.974425,293.949127 
	C7.140892,326.029877 18.140358,355.634369 33.852909,383.850769 
	C47.872040,409.026093 66.313652,430.444702 87.367722,449.621674 
	C106.877449,467.391968 129.078384,481.419220 153.338989,492.006287 
	C172.625519,500.422638 192.513550,506.839478 213.387665,509.999725 
	C216.503052,510.471375 219.534454,511.498016 222.302353,512.633911 
	C148.406296,513.000000 74.812599,513.000000 1.000000,513.000000 
	C1.000000,439.645905 1.000000,366.291626 1.000001,292.468658 
z"/>
<path fill="none" opacity="1.000000" stroke="none" 
	d="
M292.468658,513.000000 
	C292.480072,512.323975 292.909058,511.101074 293.447601,511.050781 
	C313.766846,509.152985 333.192719,503.415192 351.871948,495.740234 
	C365.748108,490.038788 379.041321,482.719238 392.082367,475.229279 
	C413.847717,462.728668 432.052307,445.703308 448.933990,427.365387 
	C460.975189,414.285461 471.283295,399.811279 479.986511,384.231018 
	C489.063843,367.981049 497.318115,351.334381 502.126709,333.308655 
	C505.636383,320.152100 508.052032,306.704285 511.010101,293.398468 
	C511.171295,292.673340 511.837036,292.060394 512.633911,291.697632 
	C513.000000,365.593689 513.000000,439.187378 513.000000,513.000000 
	C439.645905,513.000000 366.291626,513.000000 292.468658,513.000000 
z"/>
<path fill="none" opacity="1.000000" stroke="none" 
	d="
M221.531342,0.999997 
	C221.353577,1.682813 220.774734,2.879548 220.051056,2.974716 
	C184.339432,7.670969 151.712570,20.473320 121.083313,39.261429 
	C99.915543,52.245823 81.664871,68.520561 65.090942,86.660072 
	C46.284531,107.242958 31.852371,130.746109 20.723438,156.420624 
	C13.224165,173.721481 8.512706,191.740997 4.068585,209.908310 
	C3.047791,214.081268 2.498362,218.369537 1.366001,222.302368 
	C1.000000,148.406296 1.000000,74.812584 1.000000,1.000000 
	C74.354080,1.000000 147.708389,1.000000 221.531342,0.999997 
z"/>
<path fill="none" opacity="1.000000" stroke="none" 
	d="
M513.000000,221.531342 
	C512.323914,221.519608 511.106079,221.095016 511.050018,220.550705 
	C508.976318,200.427368 503.318939,181.188721 495.870514,162.540207 
	C488.363373,143.744705 478.833679,125.979378 467.041199,109.379387 
	C456.515411,94.562485 444.244965,81.426697 431.288239,68.827972 
	C417.273499,55.200497 401.558563,43.861633 384.595642,34.210789 
	C367.449829,24.455902 349.725861,15.942533 330.548431,11.035972 
	C318.440521,7.938157 306.113647,5.698302 293.897308,3.017585 
	C293.011902,2.823293 292.226929,2.171248 291.697632,1.366016 
	C365.593689,1.000000 439.187378,1.000000 513.000000,1.000000 
	C513.000000,74.354080 513.000000,147.708389 513.000000,221.531342 
z"/>
<path fill="#EF962F" opacity="1.000000" stroke="none" 
	d="
M100.882584,353.834595 
	C108.228935,330.397736 119.702156,309.739807 136.276001,292.111328 
	C142.169617,285.842651 148.463257,279.869507 155.099915,274.399109 
	C164.858063,266.355682 175.574524,266.041412 185.923813,273.383209 
	C202.288300,284.992188 220.322342,292.277039 240.169769,294.724609 
	C271.976379,298.646973 301.351471,292.139496 327.806274,273.533691 
	C337.913269,266.425385 349.477448,266.251282 357.914032,273.539093 
	C366.064819,280.579987 374.166718,287.848480 381.230774,295.941620 
	C396.987823,313.994049 407.560852,334.977722 414.522339,357.922363 
	C418.456421,370.888641 414.839478,381.136597 405.920135,390.699463 
	C368.815582,430.480896 323.286469,453.008087 269.030029,456.509796 
	C229.203552,459.080200 191.703217,450.094635 156.977676,429.974121 
	C137.191437,418.509644 120.114822,404.004517 104.986160,386.891571 
	C95.919235,376.635437 96.727318,365.804871 100.882584,353.834595 
z"/>
<path fill="#EF962F" opacity="1.000000" stroke="none" 
	d="
M287.590302,84.353577 
	C327.080505,99.149521 350.764160,135.074142 348.688507,176.581757 
	C346.492493,220.496567 310.821991,257.744934 266.732910,262.162628 
	C209.454620,267.901825 161.566589,221.608902 165.317947,164.125671 
	C168.379974,117.204887 208.831909,79.388290 255.844772,79.236137 
	C266.636902,79.201202 277.047119,80.757095 287.590302,84.353577 
z"/>
</svg>