<svg width="100" height="100" viewBox="0 0 100 100" fill="none" xmlns="http://www.w3.org/2000/svg">
<rect width="100" height="100" fill="white"/>
<path d="M10 28H90" stroke="#EF962E" stroke-width="3" stroke-miterlimit="10" stroke-linecap="round" stroke-linejoin="round"/>
<path d="M17 70H83" stroke="#EF962E" stroke-width="3" stroke-miterlimit="10" stroke-linecap="round" stroke-linejoin="round"/>
<path d="M17 55H83" stroke="#EF962E" stroke-width="3" stroke-miterlimit="10" stroke-linecap="round" stroke-linejoin="round"/>
<rect x="10" y="10" width="80" height="80" rx="5" stroke="#EF962E" stroke-width="3" stroke-linejoin="round"/>
<rect x="17" y="42" width="66" height="41" stroke="#EF962E" stroke-width="3" stroke-linejoin="round"/>
<path d="M18 22C19.6569 22 21 20.6569 21 19C21 17.3431 19.6569 16 18 16C16.3431 16 15 17.3431 15 19C15 20.6569 16.3431 22 18 22Z" stroke="#EF962E" stroke-width="3" stroke-miterlimit="10" stroke-linecap="round" stroke-linejoin="round"/>
<path d="M30 22C31.6569 22 33 20.6569 33 19C33 17.3431 31.6569 16 30 16C28.3431 16 27 17.3431 27 19C27 20.6569 28.3431 22 30 22Z" stroke="#EF962E" stroke-width="3" stroke-miterlimit="10" stroke-linecap="round" stroke-linejoin="round"/>
<path d="M42 22C43.6569 22 45 20.6569 45 19C45 17.3431 43.6569 16 42 16C40.3431 16 39 17.3431 39 19C39 20.6569 40.3431 22 42 22Z" stroke="#EF962E" stroke-width="3" stroke-miterlimit="10" stroke-linecap="round" stroke-linejoin="round"/>
<path d="M55 19H83" stroke="#EF962E" stroke-width="3" stroke-linecap="round" stroke-linejoin="round"/>
<path d="M76.406 83C76.7901 81.3091 77 79.4792 77 77.569C77 68.9705 72.7467 62 67.5 62C62.2533 62 58 68.9705 58 77.569C58 79.4792 58.2099 81.3091 58.594 83" stroke="#EF962E" stroke-width="3" stroke-linejoin="round"/>
<path d="M63 63.8751C61.6572 62.6792 60.1189 62 58.4839 62C53.2461 62 49 68.9705 49 77.569C49 79.4792 49.2096 81.3091 49.593 83" stroke="#EF962E" stroke-width="3" stroke-linejoin="round"/>
<path d="M36 63.8751C34.6572 62.6792 33.1189 62 31.4839 62C26.2461 62 22 68.9705 22 77.569C22 79.4792 22.2096 81.3091 22.593 83" stroke="#EF962E" stroke-width="3" stroke-linejoin="round"/>
<path d="M45 63.8751C43.6572 62.6792 42.1189 62 40.4839 62C35.2461 62 31 68.9705 31 77.569C31 79.4792 31.2096 81.3091 31.593 83" stroke="#EF962E" stroke-width="3" stroke-linejoin="round"/>
<path d="M54 63.8751C52.6572 62.6792 51.1189 62 49.4839 62C44.2461 62 40 68.9705 40 77.569C40 79.4792 40.2096 81.3091 40.593 83" stroke="#EF962E" stroke-width="3" stroke-linejoin="round"/>
</svg>
