<svg version="1.1" id="Layer_1" xmlns="http://www.w3.org/2000/svg" xmlns:xlink="http://www.w3.org/1999/xlink" x="0px" y="0px"
	 width="100%" viewBox="0 0 479 446" enable-background="new 0 0 479 446" xml:space="preserve">
<path fill="none" opacity="1.000000" stroke="none" 
	d="
M1.000000,164.000000 
	C1.000000,109.333336 1.000000,55.166668 1.000000,1.000000 
	C160.666672,1.000000 320.333344,1.000000 480.000000,1.000000 
	C480.000000,149.666672 480.000000,298.333344 480.000000,447.000000 
	C320.333344,447.000000 160.666672,447.000000 1.000000,447.000000 
	C1.000000,352.833344 1.000000,258.666656 1.000000,164.000000 
M330.500000,29.000000 
	C253.838348,29.000000 177.176682,28.984093 100.515076,29.042542 
	C96.259872,29.045784 91.951042,29.344341 87.759491,30.052172 
	C68.810432,33.252110 53.167217,50.748333 53.115459,70.116005 
	C52.861156,165.275681 53.005074,260.436401 52.992554,355.596741 
	C52.991226,365.695038 56.318661,374.557037 61.887241,382.942993 
	C70.279114,395.580627 82.345451,400.907013 96.845573,400.932007 
	C178.506577,401.072876 260.167938,401.000000 341.829193,400.999908 
	C346.339661,400.999908 350.853638,401.111786 355.359863,400.973358 
	C363.290436,400.729706 371.230469,399.877594 379.140167,400.124725 
	C387.478577,400.385193 394.824921,398.261169 401.920929,394.071808 
	C411.720001,388.286652 418.043152,380.117645 421.448822,369.246857 
	C425.013916,357.866913 423.922546,346.257538 423.937775,334.727936 
	C424.051941,248.233826 423.961151,161.739456 424.058380,75.245316 
	C424.068420,66.325996 422.164520,57.744572 417.848877,50.338055 
	C409.917603,36.726318 397.419373,29.380772 381.495270,29.072151 
	C364.835968,28.749283 348.165558,29.000002 330.500000,29.000000 
z"/>
<path fill="#EF962E" opacity="1.000000" stroke="none" 
	d="
M331.000000,29.000000 
	C348.165558,29.000002 364.835968,28.749283 381.495270,29.072151 
	C397.419373,29.380772 409.917603,36.726318 417.848877,50.338055 
	C422.164520,57.744572 424.068420,66.325996 424.058380,75.245316 
	C423.961151,161.739456 424.051941,248.233826 423.937775,334.727936 
	C423.922546,346.257538 425.013916,357.866913 421.448822,369.246857 
	C418.043152,380.117645 411.720001,388.286652 401.920929,394.071808 
	C394.824921,398.261169 387.478577,400.385193 379.140167,400.124725 
	C371.230469,399.877594 363.290436,400.729706 355.359863,400.973358 
	C350.853638,401.111786 346.339661,400.999908 341.829193,400.999908 
	C260.167938,401.000000 178.506577,401.072876 96.845573,400.932007 
	C82.345451,400.907013 70.279114,395.580627 61.887241,382.942993 
	C56.318661,374.557037 52.991226,365.695038 52.992554,355.596741 
	C53.005074,260.436401 52.861156,165.275681 53.115459,70.116005 
	C53.167217,50.748333 68.810432,33.252110 87.759491,30.052172 
	C91.951042,29.344341 96.259872,29.045784 100.515076,29.042542 
	C177.176682,28.984093 253.838348,29.000000 331.000000,29.000000 
M412.000000,318.500000 
	C412.000000,238.173035 411.997070,157.846085 412.004333,77.519127 
	C412.005096,69.162811 411.034515,61.637085 404.716858,54.778816 
	C397.476013,46.918346 389.287781,42.105835 378.903381,42.088970 
	C285.244537,41.936863 191.585342,41.968037 97.926277,42.028599 
	C80.450523,42.039902 65.962723,57.320610 65.972588,73.747490 
	C66.029007,167.739853 66.021378,261.732269 65.961723,355.724640 
	C65.956642,363.731659 66.737648,370.540863 73.639931,376.677826 
	C81.377007,383.557007 89.242188,387.977722 99.586327,388.014954 
	C184.844116,388.321838 270.101685,388.702362 355.359619,388.950989 
	C365.115845,388.979431 374.936737,388.913818 384.616821,387.866974 
	C399.539886,386.253113 411.456604,373.218048 411.919769,357.994446 
	C412.309814,345.174011 412.000000,332.332306 412.000000,318.500000 
z"/>
<path fill="none" opacity="1.000000" stroke="none" 
	d="
M412.000000,319.000000 
	C412.000000,332.332306 412.309814,345.174011 411.919769,357.994446 
	C411.456604,373.218048 399.539886,386.253113 384.616821,387.866974 
	C374.936737,388.913818 365.115845,388.979431 355.359619,388.950989 
	C270.101685,388.702362 184.844116,388.321838 99.586327,388.014954 
	C89.242188,387.977722 81.377007,383.557007 73.639931,376.677826 
	C66.737648,370.540863 65.956642,363.731659 65.961723,355.724640 
	C66.021378,261.732269 66.029007,167.739853 65.972588,73.747490 
	C65.962723,57.320610 80.450523,42.039902 97.926277,42.028599 
	C191.585342,41.968037 285.244537,41.936863 378.903381,42.088970 
	C389.287781,42.105835 397.476013,46.918346 404.716858,54.778816 
	C411.034515,61.637085 412.005096,69.162811 412.004333,77.519127 
	C411.997070,157.846085 412.000000,238.173035 412.000000,319.000000 
M324.350800,103.060158 
	C324.037598,102.967308 323.662079,102.955727 323.420105,102.770050 
	C299.187927,84.177811 271.376831,75.620293 241.263474,74.163490 
	C233.460373,73.786003 225.542557,75.142410 217.715027,76.032768 
	C198.473816,78.221405 180.884445,85.315521 164.439758,95.172783 
	C147.973480,105.042976 134.159622,117.877487 122.847961,133.533844 
	C107.609428,154.625320 98.771957,178.124176 96.166214,203.813278 
	C94.881981,216.474014 95.536690,229.320984 94.899445,242.062943 
	C94.647011,247.110718 96.538109,248.095551 101.170937,248.089493 
	C192.952103,247.969437 284.733459,248.000000 376.514801,248.000000 
	C378.270111,248.000000 380.025452,248.000000 381.981476,248.000000 
	C381.897369,227.206680 382.717957,207.126740 378.103760,187.246414 
	C372.466553,162.958282 362.306091,141.104858 345.202911,122.827362 
	C338.833160,116.020218 331.726959,109.902176 324.350800,103.060158 
M270.043030,344.993652 
	C273.107178,344.002380 276.220520,343.140411 279.226562,341.996429 
	C289.806244,337.970245 299.045074,324.742676 297.812408,314.542908 
	C295.521332,295.584930 284.078400,283.844940 264.541443,283.973480 
	C245.903427,284.096161 227.246857,283.497131 208.629654,284.131561 
	C187.025131,284.867859 174.061111,306.447906 182.230148,326.364075 
	C187.524078,339.270721 198.074570,344.907684 211.709717,344.975861 
	C230.847305,345.071503 249.985764,344.999481 270.043030,344.993652 
M360.000549,298.624695 
	C359.978058,291.174622 358.000214,290.252136 346.744629,292.794678 
	C346.744629,297.408325 346.744629,302.144958 346.744629,307.192017 
	C341.625854,307.192017 337.014374,307.192017 332.307312,307.192017 
	C332.307312,311.590424 332.307312,315.645294 332.307312,320.202209 
	C337.341187,320.202209 342.074219,320.202209 347.117859,320.202209 
	C347.117859,325.317871 347.117859,329.931427 347.117859,334.730652 
	C351.507599,334.730652 355.564911,334.730652 360.127045,334.730652 
	C360.127045,329.738373 360.127045,324.997467 360.127045,319.784515 
	C365.363983,319.784515 370.099640,319.784515 374.999878,319.784515 
	C374.999878,316.624817 374.848328,313.956696 375.038300,311.313141 
	C375.274536,308.026367 373.924866,306.801544 370.683044,306.978729 
	C367.247498,307.166473 363.793701,307.020935 360.000549,307.020935 
	C360.000549,304.170349 360.000549,301.867737 360.000549,298.624695 
M135.999695,314.644470 
	C135.182144,313.431793 134.398743,311.194489 133.541718,311.165894 
	C125.489868,310.897400 117.425438,311.006470 109.002266,311.006470 
	C109.002266,314.482635 109.013374,317.431183 108.999199,320.379578 
	C108.984528,323.431091 110.052261,324.824371 113.262642,323.387939 
	C113.931168,323.088776 114.820602,323.214813 115.603409,323.250488 
	C122.273247,323.554352 128.941986,323.882538 136.000031,324.222229 
	C136.000031,320.829071 136.000031,318.212433 135.999695,314.644470 
z"/>
<path fill="#EF962E" opacity="1.000000" stroke="none" 
	d="
M324.653687,103.265030 
	C331.726959,109.902176 338.833160,116.020218 345.202911,122.827362 
	C362.306091,141.104858 372.466553,162.958282 378.103760,187.246414 
	C382.717957,207.126740 381.897369,227.206680 381.981476,248.000000 
	C380.025452,248.000000 378.270111,248.000000 376.514801,248.000000 
	C284.733459,248.000000 192.952103,247.969437 101.170937,248.089493 
	C96.538109,248.095551 94.647011,247.110718 94.899445,242.062943 
	C95.536690,229.320984 94.881981,216.474014 96.166214,203.813278 
	C98.771957,178.124176 107.609428,154.625320 122.847961,133.533844 
	C134.159622,117.877487 147.973480,105.042976 164.439758,95.172783 
	C180.884445,85.315521 198.473816,78.221405 217.715027,76.032768 
	C225.542557,75.142410 233.460373,73.786003 241.263474,74.163490 
	C271.376831,75.620293 299.187927,84.177811 323.420105,102.770050 
	C323.662079,102.955727 324.037598,102.967308 324.653687,103.265030 
M369.739624,235.676315 
	C371.935089,198.552109 364.472687,164.289673 339.781769,134.104568 
	C335.991821,138.092514 332.594788,141.667038 329.227936,145.209793 
	C326.422150,142.340210 323.920319,139.781479 320.392548,136.173477 
	C324.267395,132.898544 328.301239,129.489243 332.669556,125.797249 
	C327.778381,121.399757 323.611298,117.104126 318.903778,113.517784 
	C300.443359,99.453934 279.506287,91.038902 256.726288,87.045059 
	C247.370331,85.404747 244.000641,88.290985 243.999878,97.860420 
	C243.999771,99.360245 243.927765,100.863991 244.010742,102.359161 
	C244.253021,106.724884 241.120224,106.006714 238.536987,105.978943 
	C236.004807,105.951729 232.842865,106.843536 232.980896,102.432503 
	C233.090286,98.936378 233.148834,95.424324 232.921616,91.939445 
	C232.837418,90.648064 232.080933,88.495216 231.275970,88.314201 
	C227.944733,87.565086 224.345810,86.634140 221.081680,87.181137 
	C199.678146,90.767937 179.475067,97.578156 162.041351,111.025536 
	C156.010056,115.677750 150.237045,120.664803 144.001770,125.781425 
	C148.618973,130.150299 152.361984,133.691986 155.481079,136.643326 
	C152.704788,139.534927 150.200668,142.143066 147.107986,145.364197 
	C143.881073,141.968414 140.484726,138.394348 136.892975,134.614639 
	C112.557503,164.392746 105.010529,198.562958 107.350792,236.000000 
	C109.403595,236.000000 111.211830,236.000000 113.020065,236.000000 
	C152.182236,236.000000 191.344574,235.952866 230.506348,236.078110 
	C234.135178,236.089706 236.558792,235.347565 238.573853,232.058167 
	C240.792328,228.436737 243.798996,225.291931 246.514664,221.982468 
	C255.346161,211.219864 264.168243,200.449188 273.059631,189.736160 
	C278.931885,182.660858 284.869720,175.638474 290.874878,168.675797 
	C293.263824,165.905945 296.222168,166.215881 298.747772,168.344421 
	C301.360535,170.546463 301.572388,173.375214 299.355164,176.113647 
	C287.863312,190.306961 276.340729,204.475327 264.841278,218.662476 
	C260.207855,224.378845 255.606094,230.120895 250.849060,236.469757 
	C251.966095,236.645660 253.083038,236.974472 254.200195,236.975296 
	C291.051056,237.002747 327.901917,237.007996 364.752777,236.964218 
	C366.168762,236.962540 367.584137,236.443985 369.739624,235.676315 
z"/>
<path fill="#EF962E" opacity="1.000000" stroke="none" 
	d="
M269.583435,344.996399 
	C249.985764,344.999481 230.847305,345.071503 211.709717,344.975861 
	C198.074570,344.907684 187.524078,339.270721 182.230148,326.364075 
	C174.061111,306.447906 187.025131,284.867859 208.629654,284.131561 
	C227.246857,283.497131 245.903427,284.096161 264.541443,283.973480 
	C284.078400,283.844940 295.521332,295.584930 297.812408,314.542908 
	C299.045074,324.742676 289.806244,337.970245 279.226562,341.996429 
	C276.220520,343.140411 273.107178,344.002380 269.583435,344.996399 
M269.974487,296.004852 
	C249.823944,296.003265 229.673401,295.987061 209.522873,296.006317 
	C199.660278,296.015747 191.627655,303.777191 191.506790,314.182098 
	C191.377014,325.355255 199.051224,332.509491 208.878586,332.815430 
	C228.676865,333.431824 248.511292,333.219330 268.324005,332.911407 
	C279.401672,332.739227 287.488953,321.449005 285.052582,310.688049 
	C283.278381,302.851654 278.304413,298.285919 269.974487,296.004852 
z"/>
<path fill="#EE962F" opacity="1.000000" stroke="none" 
	d="
M360.000549,299.094910 
	C360.000549,301.867737 360.000549,304.170349 360.000549,307.020935 
	C363.793701,307.020935 367.247498,307.166473 370.683044,306.978729 
	C373.924866,306.801544 375.274536,308.026367 375.038300,311.313141 
	C374.848328,313.956696 374.999878,316.624817 374.999878,319.784515 
	C370.099640,319.784515 365.363983,319.784515 360.127045,319.784515 
	C360.127045,324.997467 360.127045,329.738373 360.127045,334.730652 
	C355.564911,334.730652 351.507599,334.730652 347.117859,334.730652 
	C347.117859,329.931427 347.117859,325.317871 347.117859,320.202209 
	C342.074219,320.202209 337.341187,320.202209 332.307312,320.202209 
	C332.307312,315.645294 332.307312,311.590424 332.307312,307.192017 
	C337.014374,307.192017 341.625854,307.192017 346.744629,307.192017 
	C346.744629,302.144958 346.744629,297.408325 346.744629,292.794678 
	C358.000214,290.252136 359.978058,291.174622 360.000549,299.094910 
z"/>
<path fill="#EF962E" opacity="1.000000" stroke="none" 
	d="
M135.999863,315.120148 
	C136.000031,318.212433 136.000031,320.829071 136.000031,324.222229 
	C128.941986,323.882538 122.273247,323.554352 115.603409,323.250488 
	C114.820602,323.214813 113.931168,323.088776 113.262642,323.387939 
	C110.052261,324.824371 108.984528,323.431091 108.999199,320.379578 
	C109.013374,317.431183 109.002266,314.482635 109.002266,311.006470 
	C117.425438,311.006470 125.489868,310.897400 133.541718,311.165894 
	C134.398743,311.194489 135.182144,313.431793 135.999863,315.120148 
z"/>
<path fill="none" opacity="1.000000" stroke="none" 
	d="
M250.989899,235.851227 
	C255.606094,230.120895 260.207855,224.378845 264.841278,218.662476 
	C276.340729,204.475327 287.863312,190.306961 299.355164,176.113647 
	C301.572388,173.375214 301.360535,170.546463 298.747772,168.344421 
	C296.222168,166.215881 293.263824,165.905945 290.874878,168.675797 
	C284.869720,175.638474 278.931885,182.660858 273.059631,189.736160 
	C264.168243,200.449188 255.346161,211.219864 246.514664,221.982468 
	C243.798996,225.291931 240.792328,228.436737 238.573853,232.058167 
	C236.558792,235.347565 234.135178,236.089706 230.506348,236.078110 
	C191.344574,235.952866 152.182236,236.000000 113.020065,236.000000 
	C111.211830,236.000000 109.403595,236.000000 107.350792,236.000000 
	C105.010529,198.562958 112.557503,164.392746 136.892975,134.614639 
	C140.484726,138.394348 143.881073,141.968414 147.107986,145.364197 
	C150.200668,142.143066 152.704788,139.534927 155.481079,136.643326 
	C152.361984,133.691986 148.618973,130.150299 144.001770,125.781425 
	C150.237045,120.664803 156.010056,115.677750 162.041351,111.025536 
	C179.475067,97.578156 199.678146,90.767937 221.081680,87.181137 
	C224.345810,86.634140 227.944733,87.565086 231.275970,88.314201 
	C232.080933,88.495216 232.837418,90.648064 232.921616,91.939445 
	C233.148834,95.424324 233.090286,98.936378 232.980896,102.432503 
	C232.842865,106.843536 236.004807,105.951729 238.536987,105.978943 
	C241.120224,106.006714 244.253021,106.724884 244.010742,102.359161 
	C243.927765,100.863991 243.999771,99.360245 243.999878,97.860420 
	C244.000641,88.290985 247.370331,85.404747 256.726288,87.045059 
	C279.506287,91.038902 300.443359,99.453934 318.903778,113.517784 
	C323.611298,117.104126 327.778381,121.399757 332.669556,125.797249 
	C328.301239,129.489243 324.267395,132.898544 320.392548,136.173477 
	C323.920319,139.781479 326.422150,142.340210 329.227936,145.209793 
	C332.594788,141.667038 335.991821,138.092514 339.781769,134.104568 
	C364.472687,164.289673 371.935089,198.552109 368.905579,235.849243 
	C363.919434,236.014603 359.767334,236.005600 355.615204,235.999664 
	C320.740112,235.949860 285.864990,235.900650 250.989899,235.851227 
z"/>
<path fill="#ACACAC" opacity="1.000000" stroke="none" 
	d="
M250.919479,236.160492 
	C285.864990,235.900650 320.740112,235.949860 355.615204,235.999664 
	C359.767334,236.005600 363.919434,236.014603 368.535706,236.094223 
	C367.584137,236.443985 366.168762,236.962540 364.752777,236.964218 
	C327.901917,237.007996 291.051056,237.002747 254.200195,236.975296 
	C253.083038,236.974472 251.966095,236.645660 250.919479,236.160492 
z"/>
<path fill="none" opacity="1.000000" stroke="none" 
	d="
M270.414917,296.019135 
	C278.304413,298.285919 283.278381,302.851654 285.052582,310.688049 
	C287.488953,321.449005 279.401672,332.739227 268.324005,332.911407 
	C248.511292,333.219330 228.676865,333.431824 208.878586,332.815430 
	C199.051224,332.509491 191.377014,325.355255 191.506790,314.182098 
	C191.627655,303.777191 199.660278,296.015747 209.522873,296.006317 
	C229.673401,295.987061 249.823944,296.003265 270.414917,296.019135 
z"/>
</svg>