<svg width="160" height="188" xmlns="http://www.w3.org/2000/svg" xml:space="preserve" enable-background="new 0 0 160 188" version="1.1">

 <g>
  <title>Layer 1</title>
  <path id="svg_2" d="m120.6114,21.00444c3.49377,0.22425 4.45913,1.76729 4.4528,4.84611c-0.09344,45.47796 -0.10261,90.95625 0.00494,136.43413c0.00902,3.81655 -1.34632,4.80086 -4.9595,4.77999c-22.32186,-0.129 -44.64602,-0.18431 -66.96644,0.03642c-4.44667,0.04397 -5.2454,-1.64247 -5.213,-5.56412c0.1555,-18.823 0.42552,-37.65802 -0.10475,-56.46736c-0.21298,-7.55506 -2.02153,-15.13537 -3.72086,-22.56303c-3.11054,-13.59591 -6.78168,-27.06322 -9.93312,-40.65048c-0.40982,-1.76694 0.32702,-4.35446 1.47741,-5.82075c2.99774,-3.82095 6.50293,-7.24649 9.839,-10.79847c2.88935,-3.07636 6.20978,-4.41236 10.68987,-4.35623c21.31967,0.2671 42.64454,0.12007 64.43365,0.12379m-14.17945,20.9908c-1.22268,-0.33152 -2.4445,-0.94832 -3.66816,-0.95199c-19.97357,-0.05994 -39.94739,-0.0551 -59.92104,-0.01071c-1.20298,0.00267 -2.40496,0.45991 -3.53767,0.69138c2.97787,11.83939 5.96319,23.1045 8.62022,34.44653c2.5261,10.78304 5.58492,21.40552 5.21116,32.7812c-0.53535,16.2943 -0.03201,32.62046 -0.21285,48.93034c-0.04292,3.87121 1.00246,5.24292 5.05748,5.20228c18.97316,-0.19011 37.95013,-0.17852 56.92363,-0.0068c3.90091,0.03531 5.23901,-1.05303 5.17933,-5.08154c-0.21447,-14.47779 -0.57296,-28.98195 0.05572,-43.43557c0.6086,-13.99241 -1.88441,-27.32299 -5.60842,-40.65078c-2.87722,-10.29724 -5.10347,-20.77637 -8.0994,-31.91434m-47.7935,-15.99524c-7.44812,0.00019 -12.669,3.29435 -15.41527,9.99999c1.76097,0 3.38532,0 5.00966,0c17.98016,0 35.96034,0.00033 53.9405,-0.0002c4.96755,-0.00015 10.87833,-4.70343 12.40332,-9.99979c-18.35807,0 -36.66691,0 -55.93821,0m61.36155,24.49982c0,-6.47988 0,-12.95975 0,-20.70088c-2.35146,2.2062 -3.53123,3.32575 -4.72472,4.43046c-3.53264,3.26981 -5.43279,6.62352 -2.96956,11.75266c1.63785,3.41048 1.7421,7.53376 2.73208,11.2854c1.1013,4.17352 2.42876,8.28736 3.65777,12.42717c0.43481,-0.11747 0.86962,-0.23494 1.30443,-0.35242c0,-5.94779 0,-11.89558 0,-18.84239z" fill="#EF962E"/>
  <path id="svg_6" d="m88.24097,80.26553c-4.93806,4.55669 -8.87922,5.03341 -14.51431,1.99501c-10.94276,-5.90028 -11.64739,-21.48245 -1.26881,-28.05836c3.81724,-2.41861 10.45685,-1.30918 14.56391,2.28168c6.04356,5.28399 8.5008,17.11051 1.21921,23.78167m-17.3392,-9.76902c0.55009,1.51269 0.82384,3.21339 1.7014,4.50329c2.78143,4.08839 9.26514,5.39604 12.06877,2.62487c4.76643,-4.71123 3.34342,-15.70612 -2.78724,-18.48153c-2.18711,-0.99013 -5.90395,-1.16215 -7.68978,0.07372c-3.36091,2.32589 -5.03014,6.21414 -3.29315,11.27965z" fill="#EF962E"/>
  <path id="svg_7" d="m89,138.91466c-0.0006,2.48271 0.41612,4.60303 -0.12815,6.43838c-0.47192,1.59142 -2.03278,2.8599 -3.11234,4.27112c-1.24045,-1.25851 -3.33004,-2.38393 -3.5523,-3.80202c-0.53472,-3.41172 -0.20156,-6.96055 -0.20539,-10.4541c-0.00455,-4.1595 -0.43158,-8.38759 0.20671,-12.44725c0.28459,-1.80991 2.72478,-3.2809 4.18663,-4.90572c0.86825,1.64667 2.37596,3.25216 2.48513,4.94769c0.33073,5.13653 0.11968,10.30795 0.11971,15.9519z" fill="#EF962E"/>
  <path id="svg_8" d="m78.00171,96c11.91479,0 23.33006,0 34.74533,0c0.13223,0.42467 0.26444,0.84933 0.39667,1.27399c-1.22862,0.57433 -2.45373,1.63973 -3.68638,1.64853c-15.77262,0.11255 -31.5464,0.09309 -47.31956,0.02892c-1.01438,-0.00414 -2.02616,-0.65006 -3.03915,-0.99741c0.02913,-0.63946 0.05827,-1.27892 0.08741,-1.91837c6.10538,-0.01189 12.21077,-0.02377 18.81568,-0.03566z" fill="#EF962E"/>
 </g>
</svg>