<svg version="1.1" id="Layer_1" xmlns="http://www.w3.org/2000/svg" xmlns:xlink="http://www.w3.org/1999/xlink" x="0px" y="0px"
	 width="100%" viewBox="0 0 284 266" enable-background="new 0 0 284 266" xml:space="preserve">
<path fill="none" opacity="1.000000" stroke="none" 
	d="
M132.000000,267.000000 
	C88.351051,267.000000 44.702106,267.000000 1.026579,267.000000 
	C1.026579,178.387039 1.026579,89.774071 1.026579,1.080549 
	C95.574493,1.080549 190.149078,1.080549 284.861816,1.080549 
	C284.861816,89.666534 284.861816,178.333237 284.861816,267.000000 
	C241.568771,267.000000 198.253036,267.000000 154.127213,266.704956 
	C154.120743,265.941467 154.872482,265.221680 155.736038,265.043365 
	C164.789490,263.174103 172.325455,258.527496 179.070465,252.426697 
	C193.210846,239.636765 195.212128,222.664856 193.684052,205.353333 
	C192.660599,193.758667 186.437057,183.656891 177.315125,176.154251 
	C174.536453,173.868820 173.959930,171.872818 173.963806,168.780060 
	C174.018829,124.961479 174.043411,81.142700 173.927948,37.324360 
	C173.917801,33.471855 173.420227,29.443039 172.222504,25.800808 
	C165.678940,5.902118 144.222824,3.783738 128.541824,9.395343 
	C116.865440,13.573857 111.973587,23.279619 111.984299,35.563904 
	C112.021629,78.382851 111.855751,121.202858 112.157814,164.019699 
	C112.201523,170.215759 110.391319,174.425629 106.027466,178.661987 
	C93.399033,190.921387 89.018631,206.102219 92.001526,223.368881 
	C95.804375,245.381943 108.740532,259.106049 130.166138,265.060394 
	C130.900391,265.264435 131.394150,266.333923 132.000000,267.000000 
M209.819809,82.533714 
	C209.878296,80.053444 210.255966,77.520271 209.857452,75.115746 
	C209.664917,73.954163 208.037247,72.169777 207.018188,72.141289 
	C198.465164,71.902191 189.902573,72.005219 180.651764,72.005219 
	C181.158585,76.021515 181.588272,79.426643 182.943298,82.971390 
	C191.642456,82.930702 200.341614,82.890015 209.819809,82.533714 
M207.057526,36.027760 
	C198.720490,36.076904 190.383469,36.126049 181.230484,36.426758 
	C181.230484,39.847950 181.230484,43.269142 181.230484,46.999168 
	C189.886230,46.999168 198.163025,47.100231 206.431702,46.887051 
	C207.631805,46.856110 209.887604,45.139332 209.783844,44.512241 
	C209.322632,41.724941 212.188812,38.091114 207.057526,36.027760 
M181.218170,164.440735 
	C181.218170,167.860718 181.218170,171.280701 181.218170,174.701569 
	C193.990372,174.701569 206.349655,174.701569 218.995178,174.701569 
	C218.995178,171.607269 219.120712,168.800552 218.903610,166.020599 
	C218.851776,165.356903 217.656830,164.782501 216.061157,164.026733 
	C204.715988,164.074524 193.370804,164.122314 181.218170,164.440735 
M186.630280,138.001678 
	C197.376968,138.001678 208.123642,138.001678 218.756897,138.001678 
	C218.756897,133.967621 218.756897,130.692352 218.756897,127.292526 
	C206.125870,127.292526 193.741409,127.292526 181.227081,127.292526 
	C181.227081,130.861832 181.227081,134.136917 181.227081,137.742249 
	C182.779373,137.833038 184.221039,137.917343 186.630280,138.001678 
M184.702194,65.001358 
	C195.984589,65.001358 207.266968,65.001358 218.729935,65.001358 
	C218.729935,61.150368 218.729935,57.762020 218.729935,54.320969 
	C206.070984,54.320969 193.686142,54.320969 181.095245,54.320969 
	C181.095245,57.287823 180.871445,59.963406 181.216873,62.563370 
	C181.337479,63.471252 182.861588,64.192665 184.702194,65.001358 
M218.995956,19.713644 
	C218.522934,19.178205 218.053207,18.178589 217.576385,18.175182 
	C205.513977,18.088978 193.450821,18.107328 181.295166,18.107328 
	C181.295166,21.602165 181.295166,24.519274 181.295166,27.686178 
	C193.874695,27.686178 206.233551,27.686178 219.013138,27.686178 
	C219.013138,25.216976 219.013138,22.934704 218.995956,19.713644 
M199.500336,91.056274 
	C193.427780,91.056274 187.355209,91.056274 181.340881,91.056274 
	C181.340881,94.683136 181.340881,97.602058 181.340881,100.673431 
	C193.961044,100.673431 206.314392,100.673431 218.687592,100.673431 
	C218.687592,97.370651 218.687592,94.328262 218.687592,91.056274 
	C212.407593,91.056274 206.453705,91.056274 199.500336,91.056274 
M181.092545,112.620178 
	C181.092545,115.037689 181.092545,117.455200 181.092545,120.002327 
	C188.131683,120.002327 194.459946,120.062653 200.786636,119.988472 
	C210.763092,119.871490 210.050552,121.788185 209.954956,110.610909 
	C209.951141,110.166840 209.673630,109.725113 209.429382,109.003975 
	C200.767731,109.003975 192.126877,108.932281 183.491699,109.120544 
	C182.674271,109.138374 181.892410,110.787422 181.092545,112.620178 
M203.402557,146.074509 
	C196.010956,146.074509 188.619354,146.074509 181.364441,146.074509 
	C181.364441,149.737061 181.364441,152.656448 181.364441,155.933502 
	C186.261108,155.933502 190.875717,155.933502 195.490311,155.933502 
	C200.241425,155.933502 204.992523,155.933502 209.660217,155.933502 
	C209.660217,152.319244 209.660217,149.278900 209.660217,146.074554 
	C207.660507,146.074554 206.016449,146.074554 203.402557,146.074509 
z"/>
<path fill="#EE962F" opacity="1.000000" stroke="none" 
	d="
M132.468567,267.000000 
	C131.394150,266.333923 130.900391,265.264435 130.166138,265.060394 
	C108.740532,259.106049 95.804375,245.381943 92.001526,223.368881 
	C89.018631,206.102219 93.399033,190.921387 106.027466,178.661987 
	C110.391319,174.425629 112.201523,170.215759 112.157814,164.019699 
	C111.855751,121.202858 112.021629,78.382851 111.984299,35.563904 
	C111.973587,23.279619 116.865440,13.573857 128.541824,9.395343 
	C144.222824,3.783738 165.678940,5.902118 172.222504,25.800808 
	C173.420227,29.443039 173.917801,33.471855 173.927948,37.324360 
	C174.043411,81.142700 174.018829,124.961479 173.963806,168.780060 
	C173.959930,171.872818 174.536453,173.868820 177.315125,176.154251 
	C186.437057,183.656891 192.660599,193.758667 193.684052,205.353333 
	C195.212128,222.664856 193.210846,239.636765 179.070465,252.426697 
	C172.325455,258.527496 164.789490,263.174103 155.736038,265.043365 
	C154.872482,265.221680 154.120743,265.941467 153.658554,266.704956 
	C146.979050,267.000000 139.958099,267.000000 132.468567,267.000000 
M162.591721,178.279984 
	C162.725739,176.963150 162.976410,175.646362 162.976929,174.329483 
	C162.995422,128.568329 162.999268,82.807167 162.951569,37.046059 
	C162.949890,35.440300 162.402222,33.835114 161.438873,31.878498 
	C158.403412,22.087908 150.001434,17.500729 137.869720,19.010578 
	C129.623184,20.036901 124.001633,27.332205 124.001511,37.012974 
	C124.000938,83.156555 123.987579,129.300140 124.032959,175.443680 
	C124.035889,178.422485 123.281830,180.267380 120.618652,182.329590 
	C107.381096,192.579956 100.076340,206.525635 104.045967,223.473343 
	C108.281067,241.554474 127.897339,257.736359 148.819458,254.162720 
	C167.410629,250.987228 185.483414,232.367676 182.048294,209.765884 
	C180.331039,198.466858 174.862335,189.675980 165.776230,182.919067 
	C164.373795,181.876129 163.360931,180.309296 162.591721,178.279984 
z"/>
<path fill="#EE962E" opacity="1.000000" stroke="none" 
	d="
M186.146484,138.001678 
	C184.221039,137.917343 182.779373,137.833038 181.227081,137.742249 
	C181.227081,134.136917 181.227081,130.861832 181.227081,127.292526 
	C193.741409,127.292526 206.125870,127.292526 218.756897,127.292526 
	C218.756897,130.692352 218.756897,133.967621 218.756897,138.001678 
	C208.123642,138.001678 197.376968,138.001678 186.146484,138.001678 
z"/>
<path fill="#EE962E" opacity="1.000000" stroke="none" 
	d="
M184.223480,65.000298 
	C182.861588,64.192665 181.337479,63.471252 181.216873,62.563370 
	C180.871445,59.963406 181.095245,57.287823 181.095245,54.320969 
	C193.686142,54.320969 206.070984,54.320969 218.729935,54.320969 
	C218.729935,57.762020 218.729935,61.150368 218.729935,65.001358 
	C207.266968,65.001358 195.984589,65.001358 184.223480,65.000298 
z"/>
<path fill="#EE962E" opacity="1.000000" stroke="none" 
	d="
M216.987656,164.167038 
	C217.656830,164.782501 218.851776,165.356903 218.903610,166.020599 
	C219.120712,168.800552 218.995178,171.607269 218.995178,174.701569 
	C206.349655,174.701569 193.990372,174.701569 181.218170,174.701569 
	C181.218170,171.280701 181.218170,167.860718 181.971466,164.521698 
	C189.205093,164.734253 195.686661,165.008331 202.165298,164.951065 
	C207.108002,164.907410 212.047012,164.443817 216.987656,164.167038 
z"/>
<path fill="#E59333" opacity="1.000000" stroke="none" 
	d="
M219.004547,20.183037 
	C219.013138,22.934704 219.013138,25.216976 219.013138,27.686178 
	C206.233551,27.686178 193.874695,27.686178 181.295166,27.686178 
	C181.295166,24.519274 181.295166,21.602165 181.295166,18.107328 
	C193.450821,18.107328 205.513977,18.088978 217.576385,18.175182 
	C218.053207,18.178589 218.522934,19.178205 219.004547,20.183037 
z"/>
<path fill="#E59333" opacity="1.000000" stroke="none" 
	d="
M200.000076,91.056274 
	C206.453705,91.056274 212.407593,91.056274 218.687592,91.056274 
	C218.687592,94.328262 218.687592,97.370651 218.687592,100.673431 
	C206.314392,100.673431 193.961044,100.673431 181.340881,100.673431 
	C181.340881,97.602058 181.340881,94.683136 181.340881,91.056274 
	C187.355209,91.056274 193.427780,91.056274 200.000076,91.056274 
z"/>
<path fill="#EE952F" opacity="1.000000" stroke="none" 
	d="
M181.093292,112.149658 
	C181.892410,110.787422 182.674271,109.138374 183.491699,109.120544 
	C192.126877,108.932281 200.767731,109.003975 209.429382,109.003975 
	C209.673630,109.725113 209.951141,110.166840 209.954956,110.610909 
	C210.050552,121.788185 210.763092,119.871490 200.786636,119.988472 
	C194.459946,120.062653 188.131683,120.002327 181.092545,120.002327 
	C181.092545,117.455200 181.092545,115.037689 181.093292,112.149658 
z"/>
<path fill="#ED952F" opacity="1.000000" stroke="none" 
	d="
M207.983002,36.167805 
	C212.188812,38.091114 209.322632,41.724941 209.783844,44.512241 
	C209.887604,45.139332 207.631805,46.856110 206.431702,46.887051 
	C198.163025,47.100231 189.886230,46.999168 181.230484,46.999168 
	C181.230484,43.269142 181.230484,39.847950 181.989532,36.509850 
	C191.160065,36.451229 199.571533,36.309517 207.983002,36.167805 
z"/>
<path fill="#ED952F" opacity="1.000000" stroke="none" 
	d="
M182.017975,82.831764 
	C181.588272,79.426643 181.158585,76.021515 180.651764,72.005219 
	C189.902573,72.005219 198.465164,71.902191 207.018188,72.141289 
	C208.037247,72.169777 209.664917,73.954163 209.857452,75.115746 
	C210.255966,77.520271 209.878296,80.053444 209.077774,82.468521 
	C199.563156,82.546143 190.790558,82.688957 182.017975,82.831764 
z"/>
<path fill="#E49333" opacity="1.000000" stroke="none" 
	d="
M203.887482,146.074524 
	C206.016449,146.074554 207.660507,146.074554 209.660217,146.074554 
	C209.660217,149.278900 209.660217,152.319244 209.660217,155.933502 
	C204.992523,155.933502 200.241425,155.933502 195.490311,155.933502 
	C190.875717,155.933502 186.261108,155.933502 181.364441,155.933502 
	C181.364441,152.656448 181.364441,149.737061 181.364441,146.074509 
	C188.619354,146.074509 196.010956,146.074509 203.887482,146.074524 
z"/>
<path fill="#C6A073" opacity="1.000000" stroke="none" 
	d="
M216.524414,164.096893 
	C212.047012,164.443817 207.108002,164.907410 202.165298,164.951065 
	C195.686661,165.008331 189.205093,164.734253 182.375214,164.386383 
	C193.370804,164.122314 204.715988,164.074524 216.524414,164.096893 
z"/>
<path fill="#C49B6C" opacity="1.000000" stroke="none" 
	d="
M182.480637,82.901581 
	C190.790558,82.688957 199.563156,82.546143 208.688263,82.626335 
	C200.341614,82.890015 191.642456,82.930702 182.480637,82.901581 
z"/>
<path fill="#C59C6D" opacity="1.000000" stroke="none" 
	d="
M207.520264,36.097782 
	C199.571533,36.309517 191.160065,36.451229 182.397522,36.384068 
	C190.383469,36.126049 198.720490,36.076904 207.520264,36.097782 
z"/>
<path fill="none" opacity="1.000000" stroke="none" 
	d="
M162.167908,178.984741 
	C163.360931,180.309296 164.373795,181.876129 165.776230,182.919067 
	C174.862335,189.675980 180.331039,198.466858 182.048294,209.765884 
	C185.483414,232.367676 167.410629,250.987228 148.819458,254.162720 
	C127.897339,257.736359 108.281067,241.554474 104.045967,223.473343 
	C100.076340,206.525635 107.381096,192.579956 120.618652,182.329590 
	C123.281830,180.267380 124.035889,178.422485 124.032959,175.443680 
	C123.987579,129.300140 124.000938,83.156555 124.001511,37.012974 
	C124.001633,27.332205 129.623184,20.036901 137.869720,19.010578 
	C150.001434,17.500729 158.403412,22.087908 161.741150,32.498878 
	C162.028702,57.098873 161.986115,81.078506 162.006958,105.058090 
	C162.028366,129.700348 162.111679,154.342529 162.167908,178.984741 
M124.582436,185.939911 
	C112.109032,194.093994 107.233414,206.052567 109.190620,220.278122 
	C111.105118,234.193253 119.521553,243.352844 133.123566,247.651291 
	C145.011749,251.408142 162.090790,246.938248 169.860107,235.794830 
	C175.460052,227.762924 177.407288,219.415436 176.091293,209.696777 
	C174.586777,198.585739 169.081497,190.581070 159.529602,185.361282 
	C156.784164,183.860962 155.911041,182.449417 155.929245,179.433289 
	C156.062958,157.271179 155.933197,135.107529 156.052933,112.945259 
	C156.080276,107.882767 153.624588,104.352646 149.240433,103.335594 
	C145.150635,102.386856 140.587494,102.765961 136.348160,103.370392 
	C131.906601,104.003654 129.957138,107.080086 129.986145,111.787971 
	C130.121704,133.783401 129.920929,155.781616 130.171677,177.775055 
	C130.219269,181.949661 128.979355,184.299225 124.582436,185.939911 
z"/>
<path fill="#C39A6A" opacity="1.000000" stroke="none" 
	d="
M162.379822,178.632355 
	C162.111679,154.342529 162.028366,129.700348 162.006958,105.058090 
	C161.986115,81.078506 162.028702,57.098873 162.076233,32.674461 
	C162.402222,33.835114 162.949890,35.440300 162.951569,37.046059 
	C162.999268,82.807167 162.995422,128.568329 162.976929,174.329483 
	C162.976410,175.646362 162.725739,176.963150 162.379822,178.632355 
z"/>
<path fill="#EE962F" opacity="1.000000" stroke="none" 
	d="
M124.846100,185.669479 
	C128.979355,184.299225 130.219269,181.949661 130.171677,177.775055 
	C129.920929,155.781616 130.121704,133.783401 129.986145,111.787971 
	C129.957138,107.080086 131.906601,104.003654 136.348160,103.370392 
	C140.587494,102.765961 145.150635,102.386856 149.240433,103.335594 
	C153.624588,104.352646 156.080276,107.882767 156.052933,112.945259 
	C155.933197,135.107529 156.062958,157.271179 155.929245,179.433289 
	C155.911041,182.449417 156.784164,183.860962 159.529602,185.361282 
	C169.081497,190.581070 174.586777,198.585739 176.091293,209.696777 
	C177.407288,219.415436 175.460052,227.762924 169.860107,235.794830 
	C162.090790,246.938248 145.011749,251.408142 133.123566,247.651291 
	C119.521553,243.352844 111.105118,234.193253 109.190620,220.278122 
	C107.233414,206.052567 112.109032,194.093994 124.846100,185.669479 
M170.118942,209.551178 
	C168.612976,206.077469 167.360168,202.455078 165.457230,199.214493 
	C164.831177,198.148346 162.522232,198.070450 160.982819,197.540665 
	C160.856049,199.038559 160.101959,200.877914 160.701981,201.980179 
	C165.393478,210.598495 165.250153,219.060898 160.870590,227.740723 
	C160.251007,228.968674 161.035156,230.904892 161.169586,232.513290 
	C162.682556,231.908035 164.824890,231.741516 165.603668,230.624420 
	C169.830276,224.561569 171.911346,217.858673 170.118942,209.551178 
z"/>
<path fill="#FBF8F5" opacity="1.000000" stroke="none" 
	d="
M170.190704,209.962982 
	C171.911346,217.858673 169.830276,224.561569 165.603668,230.624420 
	C164.824890,231.741516 162.682556,231.908035 161.169586,232.513290 
	C161.035156,230.904892 160.251007,228.968674 160.870590,227.740723 
	C165.250153,219.060898 165.393478,210.598495 160.701981,201.980179 
	C160.101959,200.877914 160.856049,199.038559 160.982819,197.540665 
	C162.522232,198.070450 164.831177,198.148346 165.457230,199.214493 
	C167.360168,202.455078 168.612976,206.077469 170.190704,209.962982 
z"/>
</svg>