<?xml version="1.0" encoding="utf-8"?>
<!-- Generator: Adobe Illustrator 28.0.0, SVG Export Plug-In . SVG Version: 6.00 Build 0)  -->
<svg version="1.1" id="Layer_1" xmlns="http://www.w3.org/2000/svg" xmlns:xlink="http://www.w3.org/1999/xlink" x="0px" y="0px"
	 viewBox="0 0 800 800" style="enable-background:new 0 0 800 800;" xml:space="preserve">
<style type="text/css">
	.st0{fill:#EF962E;}
</style>
<g>
	<g>
		<g>
			<path class="st0" d="M752.2,679.4H50.3c-17.7,0-31.9-10.7-31.9-23.9V219c0-13.2,14.2-23.9,31.9-23.9h701.9
				c17.7,0,31.9,10.7,31.9,23.9v436.4C784.1,668.6,769.8,679.4,752.2,679.4z M82.2,631.4h638V242.9h-638V631.4z"/>
		</g>
		<g>
			<path class="st0" d="M611.4,782.8H177.8c-17.7,0-31.9-14.2-31.9-31.9s14.2-31.9,31.9-31.9h433.6c17.7,0,31.9,14.2,31.9,31.9
				S629.1,782.8,611.4,782.8z"/>
		</g>
	</g>
</g>
<path d="M197.3,113.9"/>
<path d="M191.2,113.9"/>
</svg>
