<svg width="100" height="100" viewBox="0 0 100 100" fill="none" xmlns="http://www.w3.org/2000/svg">
<rect x="15" y="5" width="70" height="90" rx="5" stroke="#EF962E" stroke-width="3"/>
<path d="M15 16H85" stroke="#EF962E" stroke-width="3" stroke-miterlimit="10" stroke-linecap="round" stroke-linejoin="round"/>
<path d="M15 34H85" stroke="#EF962E" stroke-width="3" stroke-miterlimit="10" stroke-linecap="round" stroke-linejoin="round"/>
<path d="M15 89H85" stroke="#EF962E" stroke-width="3" stroke-miterlimit="10" stroke-linecap="round" stroke-linejoin="round"/>
<path d="M74 28C75.6569 28 77 26.6569 77 25C77 23.3431 75.6569 22 74 22C72.3431 22 71 23.3431 71 25C71 26.6569 72.3431 28 74 28Z" stroke="#EF962E" stroke-width="3" stroke-miterlimit="10" stroke-linecap="round" stroke-linejoin="round"/>
<path d="M62 22V28" stroke="#EF962E" stroke-width="3" stroke-miterlimit="10" stroke-linecap="round" stroke-linejoin="round"/>
<path d="M50 22V28" stroke="#EF962E" stroke-width="3" stroke-miterlimit="10" stroke-linecap="round" stroke-linejoin="round"/>
<path d="M56 22V28" stroke="#EF962E" stroke-width="3" stroke-miterlimit="10" stroke-linecap="round" stroke-linejoin="round"/>
<path d="M39.1342 28H22.8658C21.8511 28 21 27.4468 21 26.7872V23.2128C21 22.5532 21.8511 22 22.8658 22H39.1342C40.1489 22 41 22.5532 41 23.2128V26.7872C41 27.4468 40.1489 28 39.1342 28Z" stroke="#EF962E" stroke-width="3" stroke-miterlimit="10" stroke-linecap="round" stroke-linejoin="round"/>
<path d="M50 82C61.0457 82 70 73.0457 70 62C70 50.9543 61.0457 42 50 42C38.9543 42 30 50.9543 30 62C30 73.0457 38.9543 82 50 82Z" stroke="#EF962E" stroke-width="3" stroke-miterlimit="10" stroke-linecap="round" stroke-linejoin="round"/>
<path d="M43.784 62.8496C43.784 58.9678 46.9507 55.8011 50.8324 55.8011" stroke="#EF962E" stroke-width="3" stroke-miterlimit="10" stroke-linecap="round" stroke-linejoin="round"/>
<path d="M61.3829 58C60.1604 53.5611 55.5279 50 49.8496 50C43.3119 50 38 55.3119 38 61.8496C38 68.3873 43.3119 73.6991 49.8496 73.6991C55.4578 73.6991 60.164 70.9178 61.3888 66" stroke="#EF962E" stroke-width="3" stroke-miterlimit="10" stroke-linecap="round" stroke-linejoin="round"/>
<path d="M61 58H59C57.3431 58 56 59.3431 56 61V63C56 64.6569 57.3431 66 59 66H60.6899" stroke="#EF962E" stroke-width="3" stroke-miterlimit="10" stroke-linecap="round" stroke-linejoin="round"/>
</svg>
