<svg width="100" height="100" viewBox="0 0 100 100" fill="none" xmlns="http://www.w3.org/2000/svg">
<path d="M61 78.5L66 51L66 84L61 78.5Z" stroke="#EF962E" stroke-width="3" stroke-linecap="round" stroke-linejoin="round"/>
<path d="M33 51L66 51L66 18L33 18L33 51Z" stroke="#EF962E" stroke-width="3" stroke-linecap="round" stroke-linejoin="round"/>
<path d="M28 78L60.5714 78L66 84L33.4286 84L28 78Z" stroke="#EF962E" stroke-width="3" stroke-linecap="round" stroke-linejoin="round"/>
<path d="M28 78L33.4286 51L66 51L60.5714 78L28 78Z" stroke="#EF962E" stroke-width="3" stroke-linecap="round" stroke-linejoin="round"/>
<path d="M46.5 67L48 60" stroke="#EF962E" stroke-width="3" stroke-linecap="round" stroke-linejoin="round"/>
<path d="M50 31C47.7909 31 46 32.7909 46 35C46 37.2091 47.7909 39 50 39C52.2091 39 54 37.2091 54 35C54 32.7909 52.2091 31 50 31Z" stroke="#EF962E" stroke-width="3" stroke-linecap="round" stroke-linejoin="round"/>
</svg>
